<?xml version="1.0" encoding="UTF-8" standalone="no"?>
<!-- Created with Inkscape (http://www.inkscape.org/) -->

<svg
   width="75.000031"
   height="61"
   viewBox="0 0 19.843757 16.139583"
   version="1.1"
   id="svg1"
   xml:space="preserve"
   xmlns="http://www.w3.org/2000/svg"
   xmlns:svg="http://www.w3.org/2000/svg"><defs
     id="defs1" /><g
     id="layer1"
     transform="translate(-5.9531156,-3.8364586)"><path
       style="fill:#f3940e;fill-opacity:1;stroke:#1a1a1a;stroke-width:0.264583;stroke-linecap:square;stroke-dasharray:none;stroke-opacity:1"
       d="M 7.4083333,3.96875 H 24.341667 c 1.101329,0.014317 1.295374,0.3012368 1.322916,0.5291667 V 19.314583 c -0.0102,0.356464 -0.209742,0.49118 -1.322916,0.529167 H 7.4083333 C 6.2711059,19.796357 6.0854704,19.734724 6.0854167,19.314583 V 4.4979167 C 6.0833954,4.268618 6.3754538,3.9752823 7.4083333,3.96875 Z"
       id="path1" /><path
       style="font-size:4.93889px;font-family:'BBH Sans Hegarty';-inkscape-font-specification:'BBH Sans Hegarty';white-space:pre;inline-size:43.3724;fill:#002277;stroke:#00014a;stroke-width:0.132292;stroke-linecap:round;stroke-linejoin:round;stroke-opacity:0.790093;image-rendering:crisp-edges"
       d="m 12.625472,10.047083 1.284111,-3.4572231 h 1.778001 l 1.284111,3.4572231 H 15.559173 L 15.396189,9.5087439 h -1.185333 l -0.172862,0.5383391 z m 1.960739,-1.7286116 -0.108655,0.3407834 h 0.66675 L 15.040589,8.3184714 14.862789,7.572699 h -0.0889 z m 2.508954,-1.7286115 h 1.284111 v 3.4572231 h -1.284111 z m 1.619952,0.987778 h 1.234722 v 0.7013224 h 0.03951 Q 20.063429,7.9826269 20.206661,7.8147046 20.354827,7.6418435 20.547444,7.572699 20.740061,7.498616 20.942555,7.498616 V 8.6888882 Q 19.999228,8.5407215 19.999228,9.2914327 v 0.7556503 h -1.284111 z m 5.477232,1.7631837 q -0.227189,0.3802946 -0.632178,0.5827891 -0.40005,0.2024943 -0.913695,0.2024943 -0.459317,0 -0.809978,-0.1531054 Q 21.485837,9.819894 21.288281,9.548255 21.090726,9.2716772 21.090726,8.921016 V 8.7037048 q 0,-0.3506612 0.197555,-0.6223001 0.197556,-0.271639 0.548217,-0.4247445 0.350661,-0.1580445 0.809978,-0.1580445 0.454378,0 0.8001,0.1580445 0.350661,0.1531055 0.548217,0.4247445 0.197556,0.2716389 0.197556,0.6223001 v 0.2913945 h -1.91629 q 0.01482,0.1432278 0.118534,0.2420056 0.108655,0.093839 0.271639,0.093839 0.128411,0 0.242005,-0.054328 0.118534,-0.059267 0.192617,-0.1580445 z M 22.646476,8.293777 q -0.13335,0 -0.232128,0.079022 -0.09878,0.079022 -0.128411,0.1975556 h 0.716139 Q 22.972443,8.4518214 22.873665,8.3727992 22.779826,8.293777 22.646476,8.293777 Z m 1.792816,1.753306 V 6.5898599 h 1.284112 V 8.155488 l 0.602544,-0.5778501 h 1.501423 L 26.765509,8.5110881 27.87676,10.047083 H 26.350643 L 25.886387,9.281555 25.723404,9.4247828 v 0.6223002 z m 4.321525,0.07902 q -0.31115,0 -0.563034,-0.1531054 Q 27.9459,9.819894 27.797733,9.548255 27.654505,9.2716772 27.654505,8.921016 V 8.7037048 q 0,-0.3556001 0.143228,-0.627239 0.148167,-0.271639 0.40005,-0.4247445 0.251884,-0.1531056 0.563034,-0.1531056 0.286455,0 0.508705,0.1382889 0.22225,0.1382889 0.350662,0.4000501 h 0.03951 V 7.5776379 h 1.234722 V 10.047083 H 29.659695 V 9.5877661 h -0.03951 q -0.128412,0.2617612 -0.350662,0.4000501 -0.22225,0.1382888 -0.508705,0.1382888 z m 0.508705,-0.8939389 q 0.148167,0 0.242006,-0.0889 0.09878,-0.093839 0.09878,-0.22225 V 8.7037048 q 0,-0.1284111 -0.09878,-0.2173111 -0.09384,-0.093839 -0.242006,-0.093839 -0.138289,0 -0.242005,0.093839 -0.09878,0.0889 -0.09878,0.2173111 V 8.921016 q 0,0.1284111 0.09878,0.22225 0.103716,0.0889 0.242005,0.0889 z"
       id="text1"
       transform="translate(-5.937126,3.2008406)"
       aria-label="Alreka " /></g></svg>
