<?xml version="1.0" encoding="UTF-8" standalone="no"?>
<!-- Created with Inkscape (http://www.inkscape.org/) -->

<svg
   width="48"
   height="48"
   viewBox="0 0 48 48"
   version="1.1"
   id="svg1"
   inkscape:version="1.3.2 (091e20e, 2023-11-25, custom)"
   sodipodi:docname="Bretzel.svg"
   xml:space="preserve"
   xmlns:inkscape="http://www.inkscape.org/namespaces/inkscape"
   xmlns:sodipodi="http://sodipodi.sourceforge.net/DTD/sodipodi-0.dtd"
   xmlns:xlink="http://www.w3.org/1999/xlink"
   xmlns="http://www.w3.org/2000/svg"
   xmlns:svg="http://www.w3.org/2000/svg"><sodipodi:namedview
     id="namedview1"
     pagecolor="#ffffff"
     bordercolor="#999999"
     borderopacity="1"
     inkscape:showpageshadow="2"
     inkscape:pageopacity="0"
     inkscape:pagecheckerboard="0"
     inkscape:deskcolor="#d1d1d1"
     inkscape:document-units="px"
     inkscape:zoom="32"
     inkscape:cx="16.859375"
     inkscape:cy="32.078125"
     inkscape:window-width="3440"
     inkscape:window-height="1377"
     inkscape:window-x="-8"
     inkscape:window-y="-8"
     inkscape:window-maximized="1"
     inkscape:current-layer="layer6" /><defs
     id="defs1"><linearGradient
       id="linearGradient5"
       inkscape:collect="always"><stop
         style="stop-color:#70491d;stop-opacity:1;"
         offset="0.36019507"
         id="stop5" /><stop
         style="stop-color:#85501a;stop-opacity:1;"
         offset="0.90414202"
         id="stop6" /><stop
         style="stop-color:#7c4d1b;stop-opacity:1;"
         offset="0.98461539"
         id="stop7" /></linearGradient><clipPath
       clipPathUnits="userSpaceOnUse"
       id="clipPath22"><path
         style="fill:#b7cf53;fill-opacity:1;stroke:#ddce9a;stroke-width:0.0886341;stroke-linecap:round;stroke-linejoin:round;stroke-dasharray:none;stroke-opacity:1"
         d="m 13.650113,25.362596 c -0.03815,0.02836 -0.186166,2.560733 -0.186166,2.560733 0.361007,0.0033 0.605814,0.08244 0.906416,-0.09404 0.300602,-0.176482 0.691588,-0.292819 0.895734,-0.04627 0.204146,0.246546 1.090006,0.127494 1.101739,-0.140314 l -0.206004,-2.144271 z"
         id="path23"
         sodipodi:nodetypes="cczzccc" /></clipPath><clipPath
       clipPathUnits="userSpaceOnUse"
       id="clipPath23"><path
         style="fill:#b7cf53;fill-opacity:1;stroke:#ddce9a;stroke-width:0.0886341;stroke-linecap:round;stroke-linejoin:round;stroke-dasharray:none;stroke-opacity:1"
         d="m 13.650113,25.362596 c -0.03815,0.02836 -0.186166,2.560733 -0.186166,2.560733 0.361007,0.0033 0.605814,0.08244 0.906416,-0.09404 0.300602,-0.176482 0.691588,-0.292819 0.895734,-0.04627 0.204146,0.246546 1.090006,0.127494 1.101739,-0.140314 l -0.206004,-2.144271 z"
         id="path24"
         sodipodi:nodetypes="cczzccc" /></clipPath><clipPath
       clipPathUnits="userSpaceOnUse"
       id="clipPath74"><path
         style="fill:none;fill-opacity:1;stroke:#2da53d;stroke-width:0.15;stroke-linecap:round;stroke-linejoin:round;stroke-dasharray:none;stroke-opacity:1"
         d="m 14.559572,30.716845 c 0.571312,-0.06337 0.715664,0.222315 1.625304,0.281813 0.90964,0.0595 1.720722,0.411063 3.972353,-0.120777 2.251631,-0.531839 2.135545,-0.220824 3.498538,0.296022 1.362992,0.516846 2.175232,-0.307293 3.272645,-0.32444 1.097413,-0.01715 2.282131,0.614185 3.355289,0.480739 1.073158,-0.13345 2.334942,-0.90617 3.068795,-1.034886 0.733853,-0.128716 0.582968,0.276759 1.239639,-0.49258 0.656671,-0.769339 1.035787,-4.620303 1.035787,-4.620303 l -8.677472,-5.195769 -13.239342,0.641775 -4.1596774,9.35191 c 0,0 2.7856074,1.177189 3.7299354,0.994632 0.944328,-0.182557 0.706894,-0.194771 1.278206,-0.258136 z"
         id="path74"
         sodipodi:nodetypes="zzzzzzzzcccczz" /></clipPath><radialGradient
       inkscape:collect="always"
       xlink:href="#linearGradient5"
       id="radialGradient6"
       cx="25.224903"
       cy="25.228247"
       fx="25.224903"
       fy="25.228247"
       r="17.909231"
       gradientTransform="matrix(1,0,0,0.75160995,0,7.5370956)"
       gradientUnits="userSpaceOnUse" /></defs><g
     inkscape:groupmode="layer"
     id="layer6"
     inkscape:label="Plate"><path
       style="fill:none;fill-opacity:1;stroke:url(#radialGradient6);stroke-width:3.25948;stroke-linecap:round;stroke-linejoin:round;stroke-dasharray:none;stroke-opacity:1"
       d="m 10.483284,36.111105 c 8.679612,-4.458386 11.939673,-6.094037 14.766567,-11.70849 l -0.890892,-0.661277 0.890892,-0.602927 c 0,0 -0.827981,-2.151648 -3.942202,-3.530053 -3.114223,-1.378405 -9.410205,-0.378104 -11.136177,3.549504 -1.7259726,3.927605 -2.4499614,9.423193 0.178174,12.749026 2.628137,3.325832 5.608267,4.694633 9.176208,5.669474 3.56794,0.974844 8.023527,0.621081 11.425718,-0.243114 3.40219,-0.864197 6.477726,-1.075372 8.574853,-4.414996 2.097129,-3.339622 2.097483,-11.481857 0.222723,-14.645337 -1.87476,-3.163479 -3.99139,-4.257946 -7.21624,-3.568949 -3.224848,0.688996 -8.285317,4.123255 -8.285317,4.123255 l 1.559066,1.011362 -1.603611,0.865498 c 1.844506,4.479717 8.091444,10.157203 14.989294,12.048852"
       id="path1"
       sodipodi:nodetypes="cccczzzzzzzzcccc" /><path
       style="fill:#f5c48c;fill-opacity:0.430429;stroke:none;stroke-width:1;stroke-linecap:round;stroke-linejoin:round;stroke-dasharray:none;stroke-dashoffset:0;stroke-opacity:0.430429;paint-order:markers fill stroke"
       d="m 13.121382,39.311859 c 5.392389,0.320314 5.541648,1.863706 11.521172,1.96646 5.979525,0.102755 7.293602,-1.898633 12.039282,-1.689749 0.157642,0.982659 -7.636552,4.147069 -13.401279,3.702745 C 17.51583,42.846991 13.078316,40.508258 13.121382,39.311859 Z"
       id="path13"
       sodipodi:nodetypes="czczc" /><path
       style="fill:#ffffff;fill-opacity:0.726715;stroke:none;stroke-width:1;stroke-linecap:round;stroke-linejoin:round;stroke-dasharray:none;stroke-dashoffset:0;stroke-opacity:0.430429;paint-order:markers fill stroke"
       d="m 11.076029,21.609212 0.02204,0.506789 0.374647,-0.118409 -0.2314,-0.393116 z"
       id="path14" /><path
       style="fill:#ffffff;fill-opacity:0.726715;stroke:none;stroke-width:1;stroke-linecap:round;stroke-linejoin:round;stroke-dasharray:none;stroke-dashoffset:0;stroke-opacity:0.430429;paint-order:markers fill stroke"
       d="m 15.982279,17.796712 0.02204,0.506789 0.374647,-0.118409 -0.2314,-0.393116 z"
       id="path15" /><path
       style="fill:#ffffff;fill-opacity:0.726715;stroke:none;stroke-width:0.833391;stroke-linecap:round;stroke-linejoin:round;stroke-dasharray:none;stroke-dashoffset:0;stroke-opacity:0.430429;paint-order:markers fill stroke"
       d="m 23.451029,21.982765 0.02204,0.351986 0.374647,-0.08224 -0.2314,-0.273035 z"
       id="path16" /><path
       style="fill:#ffffff;fill-opacity:0.726715;stroke:none;stroke-width:0.730511;stroke-linecap:round;stroke-linejoin:round;stroke-dasharray:none;stroke-dashoffset:0;stroke-opacity:0.430429;paint-order:markers fill stroke"
       d="m 29.388529,18.919976 0.01857,0.321025 0.31562,-0.07501 -0.194942,-0.249019 z"
       id="path17" /><path
       style="fill:#ffffff;fill-opacity:0.726715;stroke:none;stroke-width:0.901045;stroke-linecap:round;stroke-linejoin:round;stroke-dasharray:none;stroke-dashoffset:0;stroke-opacity:0.430429;paint-order:markers fill stroke"
       d="m 35.076029,18.765462 -0.01789,0.506789 -0.304169,-0.118409 0.187869,-0.393116 z"
       id="path18" /><path
       style="fill:#ffffff;fill-opacity:0.726715;stroke:none;stroke-width:0.901045;stroke-linecap:round;stroke-linejoin:round;stroke-dasharray:none;stroke-dashoffset:0;stroke-opacity:0.430429;paint-order:markers fill stroke"
       d="m 10.513529,37.046712 -0.01789,0.506789 -0.304169,-0.118409 0.187869,-0.393116 z"
       id="path19" /><path
       style="fill:#ffffff;fill-opacity:0.726715;stroke:none;stroke-width:0.901045;stroke-linecap:round;stroke-linejoin:round;stroke-dasharray:none;stroke-dashoffset:0;stroke-opacity:0.430429;paint-order:markers fill stroke"
       d="m 15.076029,38.765462 -0.01789,0.506789 -0.304169,-0.118409 0.187869,-0.393116 z"
       id="path20" /><path
       style="fill:#ffffff;fill-opacity:0.726715;stroke:none;stroke-width:0.901045;stroke-linecap:round;stroke-linejoin:round;stroke-dasharray:none;stroke-dashoffset:0;stroke-opacity:0.430429;paint-order:markers fill stroke"
       d="m 17.607279,41.515462 -0.01789,0.506789 -0.304169,-0.118409 0.187869,-0.393116 z"
       id="path21" /><path
       style="fill:#ffffff;fill-opacity:0.726715;stroke:none;stroke-width:1.06615;stroke-linecap:round;stroke-linejoin:round;stroke-dasharray:none;stroke-dashoffset:0;stroke-opacity:0.430429;paint-order:markers fill stroke"
       d="m 19.763529,40.75736 -0.03525,-0.360109 -0.59931,0.08414 0.370162,0.279337 z"
       id="path22" /><path
       style="fill:#ffffff;fill-opacity:0.726715;stroke:none;stroke-width:0.805013;stroke-linecap:round;stroke-linejoin:round;stroke-dasharray:none;stroke-dashoffset:0;stroke-opacity:0.430429;paint-order:markers fill stroke"
       d="m 22.794779,43.290058 -0.03525,-0.205307 -0.59931,0.04797 0.370162,0.159257 z"
       id="path25" /><path
       style="fill:#ffffff;fill-opacity:0.726715;stroke:none;stroke-width:0.863037;stroke-linecap:round;stroke-linejoin:round;stroke-dasharray:none;stroke-dashoffset:0;stroke-opacity:0.430429;paint-order:markers fill stroke"
       d="m 26.607279,41.41361 -0.0231,-0.360109 -0.392712,0.08414 0.242557,0.279337 z"
       id="path26" /><path
       style="fill:#ffffff;fill-opacity:0.726715;stroke:none;stroke-width:0.863037;stroke-linecap:round;stroke-linejoin:round;stroke-dasharray:none;stroke-dashoffset:0;stroke-opacity:0.430429;paint-order:markers fill stroke"
       d="m 37.076029,41.00736 -0.0231,-0.360109 -0.392712,0.08414 0.242557,0.279337 z"
       id="path27" /><path
       style="fill:#ffffff;fill-opacity:0.726715;stroke:none;stroke-width:0.992053;stroke-linecap:round;stroke-linejoin:round;stroke-dasharray:none;stroke-dashoffset:0;stroke-opacity:0.430429;paint-order:markers fill stroke"
       d="m 32.576029,39.796428 -0.0231,0.475823 -0.392712,-0.111177 0.242557,-0.369096 z"
       id="path28" /><path
       style="fill:#ffffff;fill-opacity:0.726715;stroke:none;stroke-width:0.78475;stroke-linecap:round;stroke-linejoin:round;stroke-dasharray:none;stroke-dashoffset:0;stroke-opacity:0.430429;paint-order:markers fill stroke"
       d="m 29.826029,43.068412 0.01336,-0.514911 0.227081,0.12031 -0.140256,0.399417 z"
       id="path29" /></g><g
     inkscape:groupmode="layer"
     id="layer2"
     inkscape:label="Layer 2"
     clip-path="url(#clipPath74)" /><g
     inkscape:groupmode="layer"
     id="layer5"
     inkscape:label="WaterclipL" /><g
     inkscape:label="Layer 1"
     inkscape:groupmode="layer"
     id="layer1" /></svg>
