<?xml version="1.0" encoding="UTF-8" standalone="no"?>
<!-- Created with Inkscape (http://www.inkscape.org/) -->

<svg
   width="120"
   height="90"
   viewBox="0 0 31.75 23.8125"
   version="1.1"
   id="svg1"
   inkscape:version="1.3.2 (091e20e, 2023-11-25, custom)"
   sodipodi:docname="GrassPlane.svg"
   xmlns:inkscape="http://www.inkscape.org/namespaces/inkscape"
   xmlns:sodipodi="http://sodipodi.sourceforge.net/DTD/sodipodi-0.dtd"
   xmlns="http://www.w3.org/2000/svg"
   xmlns:svg="http://www.w3.org/2000/svg">
  <sodipodi:namedview
     id="namedview1"
     pagecolor="#ffffff"
     bordercolor="#999999"
     borderopacity="1"
     inkscape:showpageshadow="2"
     inkscape:pageopacity="0"
     inkscape:pagecheckerboard="0"
     inkscape:deskcolor="#d1d1d1"
     inkscape:document-units="mm"
     inkscape:zoom="8.4167789"
     inkscape:cx="58.989313"
     inkscape:cy="34.395581"
     inkscape:window-width="3440"
     inkscape:window-height="1377"
     inkscape:window-x="-8"
     inkscape:window-y="-8"
     inkscape:window-maximized="1"
     inkscape:current-layer="layer1" />
  <defs
     id="defs1" />
  <g
     inkscape:label="Layer 1"
     inkscape:groupmode="layer"
     id="layer1">
    <path
       style="fill:#8cd68f;fill-opacity:1;stroke:#1a1a1a;stroke-width:0.264583;stroke-linecap:square;stroke-dasharray:none"
       d="M -1.1906252,0.1322915 H 33.205209 V 26.458333 H -1.1906252 Z"
       id="path1"
       sodipodi:nodetypes="ccccc" />
    <path
       style="fill:#8cd68f;fill-opacity:1;stroke:#1a1a1a;stroke-width:0.211667;stroke-linecap:round;stroke-linejoin:round;stroke-dasharray:none;stroke-opacity:0.790093"
       d="M 3.145764,3.2866506 C 3.2994661,3.0042416 3.2602359,2.6773343 4.2273807,2.5825398 4.3222977,2.932853 4.3878052,3.3466965 4.8276447,3.3307215 5.0653023,2.8456924 5.1212814,2.6505698 5.9784158,2.5843031 c 0.071373,0.3172673 0.00725,0.728214 0.6018394,0.7197878"
       id="path2"
       sodipodi:nodetypes="ccccc" />
    <path
       style="fill:#8cd68f;fill-opacity:1;stroke:#1a1a1a;stroke-width:0.211667;stroke-linecap:round;stroke-linejoin:round;stroke-dasharray:none;stroke-opacity:0.790093"
       d="M 6.7276387,7.4068781 C 6.8813408,7.1244691 6.8421106,6.7975618 7.8092554,6.7027673 7.9041724,7.0530805 7.9696799,7.466924 8.4095194,7.450949 8.647177,6.9659199 8.7031561,6.7707973 9.5602905,6.7045306 c 0.071373,0.3172673 0.00725,0.728214 0.6018395,0.7197878"
       id="path3"
       sodipodi:nodetypes="ccccc" />
    <path
       style="fill:#8cd68f;fill-opacity:1;stroke:#1a1a1a;stroke-width:0.211667;stroke-linecap:round;stroke-linejoin:round;stroke-dasharray:none;stroke-opacity:0.790093"
       d="m 13.523012,4.9374367 c 0.153702,-0.282409 0.114472,-0.6093163 1.081616,-0.7041108 0.09492,0.3503132 0.199614,0.5788644 0.639453,0.5628894 0.237658,-0.4850291 0.07418,-0.4881215 1.111582,-0.5611261 0.07137,0.3172673 0.0072,0.728214 0.60184,0.7197878"
       id="path4"
       sodipodi:nodetypes="ccccc" />
    <path
       style="fill:#8cd68f;fill-opacity:1;stroke:#1a1a1a;stroke-width:0.211667;stroke-linecap:round;stroke-linejoin:round;stroke-dasharray:none;stroke-opacity:0.790093"
       d="m 25.687278,3.0609307 c 0.153702,-0.282409 0.114472,-0.6093163 1.081616,-0.7041108 0.09492,0.3503132 0.160425,0.7641567 0.600264,0.7481817 0.237658,-0.4850291 -0.02771,-0.6835207 0.829421,-0.7497874 0.07137,0.3172673 0.25801,0.6136697 0.85265,0.6052435"
       id="path5"
       sodipodi:nodetypes="ccccc" />
    <path
       style="fill:#8cd68f;fill-opacity:1;stroke:#1a1a1a;stroke-width:0.211667;stroke-linecap:round;stroke-linejoin:round;stroke-dasharray:none;stroke-opacity:0.790093"
       d="m 23.116479,8.4680977 c 0.153702,-0.282409 0.114472,-0.6093163 1.081616,-0.7041108 0.09492,0.3503132 0.08205,0.7203603 0.521886,0.7043853 0.237658,-0.4850291 0.372015,-0.6363553 1.229149,-0.702622 0.07137,0.3172673 0.0072,0.728214 0.60184,0.7197878"
       id="path6"
       sodipodi:nodetypes="ccccc" />
    <path
       style="fill:#8cd68f;fill-opacity:1;stroke:#1a1a1a;stroke-width:0.211667;stroke-linecap:round;stroke-linejoin:round;stroke-dasharray:none;stroke-opacity:0.790093"
       d="m 26.455383,16.125725 c 0.153702,-0.282409 0.114472,-0.609316 1.081616,-0.704111 0.09492,0.350313 0.160425,0.764157 0.600264,0.748182 0.237658,-0.485029 0.293637,-0.680152 1.150771,-0.746418 0.07137,0.317267 0.0072,0.728214 0.60184,0.719787"
       id="path7"
       sodipodi:nodetypes="ccccc" />
    <path
       style="fill:#8cd68f;fill-opacity:1;stroke:#1a1a1a;stroke-width:0.211667;stroke-linecap:round;stroke-linejoin:round;stroke-dasharray:none;stroke-opacity:0.790093"
       d="m 16.901104,11.95833 c 0.153702,-0.282409 0.114472,-0.609316 1.081616,-0.704111 0.09492,0.350313 0.160425,0.764157 0.600264,0.748182 0.237658,-0.485029 0.293637,-0.680152 1.150771,-0.746418 0.07137,0.317267 0.0072,0.728214 0.60184,0.719787"
       id="path8"
       sodipodi:nodetypes="ccccc" />
    <path
       style="fill:#8cd68f;fill-opacity:1;stroke:#1a1a1a;stroke-width:0.211667;stroke-linecap:round;stroke-linejoin:round;stroke-dasharray:none;stroke-opacity:0.790093"
       d="m 7.9424986,14.609696 c 0.1540819,-0.281683 0.2978854,-0.258928 1.081616,-0.704111 0.09492,0.350313 0.1604252,0.764157 0.6002642,0.748182 0.3061118,-0.488491 0.5557912,-0.693409 1.1507712,-0.746418 0.07137,0.317267 0.0072,0.728214 0.60184,0.719787"
       id="path9"
       sodipodi:nodetypes="ccccc" />
    <path
       style="fill:#8cd68f;fill-opacity:1;stroke:#1a1a1a;stroke-width:0.211667;stroke-linecap:round;stroke-linejoin:round;stroke-dasharray:none;stroke-opacity:0.790093"
       d="m 17.183265,19.784404 c 0.153702,-0.282409 0.114472,-0.609316 1.081616,-0.704111 0.09492,0.350313 0.21529,0.673195 0.655129,0.65722 0.237658,-0.485029 0.238772,-0.58919 1.095906,-0.655456 0.07137,0.317267 0.0072,0.728214 0.60184,0.719787"
       id="path10"
       sodipodi:nodetypes="ccccc" />
    <path
       style="fill:#8cd68f;fill-opacity:1;stroke:#1a1a1a;stroke-width:0.211667;stroke-linecap:round;stroke-linejoin:round;stroke-dasharray:none;stroke-opacity:0.790093"
       d="m 2.3776602,10.769091 c 0.153702,-0.282409 0.114472,-0.609316 1.081616,-0.704111 0.09492,0.350313 0.160425,0.764157 0.600264,0.748182 0.237658,-0.485029 0.293637,-0.680152 1.150771,-0.746418 0.07137,0.317267 0.0072,0.728214 0.60184,0.719787"
       id="path12"
       sodipodi:nodetypes="ccccc" />
    <path
       style="fill:#8cd68f;fill-opacity:1;stroke:#1a1a1a;stroke-width:0.211667;stroke-linecap:round;stroke-linejoin:round;stroke-dasharray:none;stroke-opacity:0.790093"
       d="m 2.6284697,18.463776 c 0.153702,-0.282409 0.114472,-0.609316 1.081616,-0.704111 0.09492,0.350313 0.160425,0.764157 0.600264,0.748182 0.237658,-0.485029 -0.0042,-0.400529 0.8529346,-0.466795 0.07137,0.317267 -0.1809072,0.593456 0.4137328,0.585029"
       id="path13"
       sodipodi:nodetypes="ccccc" />
    <path
       style="fill:#8cd68f;fill-opacity:1;stroke:#1a1a1a;stroke-width:0.211667;stroke-linecap:round;stroke-linejoin:round;stroke-dasharray:none;stroke-opacity:0.790093"
       d="m 7.3076366,22.506518 c 0.153702,-0.282409 0.114472,-0.609316 1.081616,-0.704111 0.09492,0.350313 0.160425,0.764157 0.600264,0.748182 0.237658,-0.485029 -0.07474,-0.707104 0.7823948,-0.77337 0.07137,0.317267 0.3285496,0.522708 0.9231896,0.514281"
       id="path14"
       sodipodi:nodetypes="ccccc" />
    <path
       style="fill:#8cd68f;fill-opacity:1;stroke:#1a1a1a;stroke-width:0.211667;stroke-linecap:round;stroke-linejoin:round;stroke-dasharray:none;stroke-opacity:0.790093"
       d="m 24.205934,23.102823 c 0.153702,-0.282409 0.114472,-0.609316 1.081616,-0.704111 0.09492,0.350313 0.08205,0.693409 0.474859,0.768396 0.425765,-0.360378 0.904986,-0.915979 1.276176,-0.766632 0.07137,0.317267 0.0072,0.728214 0.60184,0.719787"
       id="path16"
       sodipodi:nodetypes="ccccc" />
    <path
       style="fill:#8cd68f;fill-opacity:1;stroke:#37572d;stroke-width:0.211667;stroke-linecap:round;stroke-linejoin:round;stroke-dasharray:none;stroke-opacity:0.790093"
       d="M 8.788407,22.518913 8.6473267,21.30946 c 0,0 0.3629991,-1.071289 0.5172948,-0.983734 0.1542957,0.08756 0.5916875,-0.124146 0.6818886,-0.313312 0.090201,-0.189166 -0.1479399,-0.581941 -0.3918899,-0.623257 -0.24395,-0.04132 -0.3925479,0.06942 -0.4849642,0.314155 -0.092416,0.244738 -0.06947,0.548111 0.203783,0.628309"
       id="path21"
       sodipodi:nodetypes="cczzzzc" />
    <path
       style="fill:#8cd68f;fill-opacity:1;stroke:#37572d;stroke-width:0.211667;stroke-linecap:round;stroke-linejoin:round;stroke-dasharray:none;stroke-opacity:0.790093"
       d="M 8.788407,22.518913 8.6473267,21.30946 c 0,0 0.3629991,-1.071289 0.5172948,-0.983734 0.1542957,0.08756 0.5916875,-0.124146 0.6818886,-0.313312 0.090201,-0.189166 -0.1479399,-0.581941 -0.3918899,-0.623257 -0.24395,-0.04132 -0.3925479,0.06942 -0.4849642,0.314155 -0.092416,0.244738 -0.06947,0.548111 0.203783,0.628309"
       id="path22"
       sodipodi:nodetypes="cczzzzc" />
    <path
       style="fill:#8cd68f;fill-opacity:1;stroke:#37572d;stroke-width:0.211667;stroke-linecap:round;stroke-linejoin:round;stroke-dasharray:none;stroke-opacity:0.790093"
       d="M 18.4096,11.899028 C 18.297788,11.519878 18.4078,11.05278 18.34057,10.826552 18.209208,10.352288 17.854813,9.8926416 18.162323,9.7522941 18.469832,9.6119467 18.421482,9.4709224 18.348188,9.2650809 18.274894,9.0592395 17.936995,8.8475123 17.723527,8.9324534 c -0.213468,0.084941 -0.220741,0.3004942 -0.130265,0.5285537 0.09048,0.2280595 0.332336,0.3956497 0.55571,0.2947998"
       id="path23"
       sodipodi:nodetypes="cczzzzc" />
    <path
       style="fill:#8cd68f;fill-opacity:1;stroke:#37572d;stroke-width:0.211667;stroke-linecap:round;stroke-linejoin:round;stroke-dasharray:none;stroke-opacity:0.790093"
       d="M 18.4096,11.899028 C 18.297788,11.519878 18.4078,11.05278 18.34057,10.826552 18.209208,10.352288 17.854813,9.8926416 18.162323,9.7522941 18.469832,9.6119467 18.421482,9.4709224 18.348188,9.2650809 18.274894,9.0592395 17.936995,8.8475123 17.723527,8.9324534 c -0.213468,0.084941 -0.220741,0.3004942 -0.130265,0.5285537 0.09048,0.2280595 0.332336,0.3956497 0.55571,0.2947998"
       id="path24"
       sodipodi:nodetypes="cczzzzc" />
  </g>
</svg>
