<?xml version="1.0" encoding="UTF-8" standalone="no"?>
<!-- Created with Inkscape (http://www.inkscape.org/) -->

<svg
   width="48"
   height="48"
   viewBox="0 0 48 48"
   version="1.1"
   id="svg1"
   inkscape:version="1.3.2 (091e20e, 2023-11-25, custom)"
   sodipodi:docname="Pelmeni.svg"
   xml:space="preserve"
   xmlns:inkscape="http://www.inkscape.org/namespaces/inkscape"
   xmlns:sodipodi="http://sodipodi.sourceforge.net/DTD/sodipodi-0.dtd"
   xmlns:xlink="http://www.w3.org/1999/xlink"
   xmlns="http://www.w3.org/2000/svg"
   xmlns:svg="http://www.w3.org/2000/svg"><sodipodi:namedview
     id="namedview1"
     pagecolor="#ffffff"
     bordercolor="#999999"
     borderopacity="1"
     inkscape:showpageshadow="2"
     inkscape:pageopacity="0"
     inkscape:pagecheckerboard="0"
     inkscape:deskcolor="#d1d1d1"
     inkscape:document-units="px"
     inkscape:zoom="32"
     inkscape:cx="15.421875"
     inkscape:cy="28.171875"
     inkscape:window-width="3440"
     inkscape:window-height="1377"
     inkscape:window-x="-8"
     inkscape:window-y="-8"
     inkscape:window-maximized="1"
     inkscape:current-layer="layer6" /><defs
     id="defs1"><linearGradient
       id="linearGradient3"
       inkscape:collect="always"><stop
         style="stop-color:#dfcf90;stop-opacity:1;"
         offset="0.39963168"
         id="stop3" /><stop
         style="stop-color:#e7dbb7;stop-opacity:1;"
         offset="1"
         id="stop4" /></linearGradient><radialGradient
       inkscape:collect="always"
       xlink:href="#linearGradient3"
       id="radialGradient4"
       cx="14.505264"
       cy="28.302181"
       fx="14.505264"
       fy="28.302181"
       r="0.9960215"
       gradientTransform="matrix(1,0,0,1.5724495,0,-16.201569)"
       gradientUnits="userSpaceOnUse" /><radialGradient
       inkscape:collect="always"
       xlink:href="#linearGradient3"
       id="radialGradient9"
       gradientUnits="userSpaceOnUse"
       gradientTransform="matrix(1,0,0,1.5724495,0,-16.201569)"
       cx="14.505264"
       cy="28.302181"
       fx="14.505264"
       fy="28.302181"
       r="0.9960215" /><radialGradient
       inkscape:collect="always"
       xlink:href="#linearGradient3"
       id="radialGradient11"
       gradientUnits="userSpaceOnUse"
       gradientTransform="matrix(1,0,0,1.5724495,0,-16.201569)"
       cx="14.505264"
       cy="28.302181"
       fx="14.505264"
       fy="28.302181"
       r="0.9960215" /><radialGradient
       inkscape:collect="always"
       xlink:href="#linearGradient3"
       id="radialGradient13"
       gradientUnits="userSpaceOnUse"
       gradientTransform="matrix(1,0,0,1.5724495,0,-16.201569)"
       cx="14.505264"
       cy="28.302181"
       fx="14.505264"
       fy="28.302181"
       r="0.9960215" /><radialGradient
       inkscape:collect="always"
       xlink:href="#linearGradient3"
       id="radialGradient15"
       gradientUnits="userSpaceOnUse"
       gradientTransform="matrix(1,0,0,1.5724495,0,-16.201569)"
       cx="14.505264"
       cy="28.302181"
       fx="14.505264"
       fy="28.302181"
       r="0.9960215" /><radialGradient
       inkscape:collect="always"
       xlink:href="#linearGradient3"
       id="radialGradient17"
       gradientUnits="userSpaceOnUse"
       gradientTransform="matrix(1,0,0,1.5724495,0,-16.201569)"
       cx="14.505264"
       cy="28.302181"
       fx="14.505264"
       fy="28.302181"
       r="0.9960215" /><radialGradient
       inkscape:collect="always"
       xlink:href="#linearGradient3"
       id="radialGradient19"
       gradientUnits="userSpaceOnUse"
       gradientTransform="matrix(1,0,0,1.5724495,0,-16.201569)"
       cx="14.505264"
       cy="28.302181"
       fx="14.505264"
       fy="28.302181"
       r="0.9960215" /><clipPath
       clipPathUnits="userSpaceOnUse"
       id="clipPath22"><path
         style="fill:#b7cf53;fill-opacity:1;stroke:#ddce9a;stroke-width:0.0886341;stroke-linecap:round;stroke-linejoin:round;stroke-dasharray:none;stroke-opacity:1"
         d="m 13.650113,25.362596 c -0.03815,0.02836 -0.186166,2.560733 -0.186166,2.560733 0.361007,0.0033 0.605814,0.08244 0.906416,-0.09404 0.300602,-0.176482 0.691588,-0.292819 0.895734,-0.04627 0.204146,0.246546 1.090006,0.127494 1.101739,-0.140314 l -0.206004,-2.144271 z"
         id="path23"
         sodipodi:nodetypes="cczzccc" /></clipPath><clipPath
       clipPathUnits="userSpaceOnUse"
       id="clipPath23"><path
         style="fill:#b7cf53;fill-opacity:1;stroke:#ddce9a;stroke-width:0.0886341;stroke-linecap:round;stroke-linejoin:round;stroke-dasharray:none;stroke-opacity:1"
         d="m 13.650113,25.362596 c -0.03815,0.02836 -0.186166,2.560733 -0.186166,2.560733 0.361007,0.0033 0.605814,0.08244 0.906416,-0.09404 0.300602,-0.176482 0.691588,-0.292819 0.895734,-0.04627 0.204146,0.246546 1.090006,0.127494 1.101739,-0.140314 l -0.206004,-2.144271 z"
         id="path24"
         sodipodi:nodetypes="cczzccc" /></clipPath><radialGradient
       inkscape:collect="always"
       xlink:href="#linearGradient3"
       id="radialGradient27"
       gradientUnits="userSpaceOnUse"
       gradientTransform="matrix(1,0,0,1.5724495,0,-16.201569)"
       cx="14.505264"
       cy="28.302181"
       fx="14.505264"
       fy="28.302181"
       r="0.9960215" /><radialGradient
       inkscape:collect="always"
       xlink:href="#linearGradient3"
       id="radialGradient29"
       gradientUnits="userSpaceOnUse"
       gradientTransform="matrix(1,0,0,1.5724495,0,-16.201569)"
       cx="14.505264"
       cy="28.302181"
       fx="14.505264"
       fy="28.302181"
       r="0.9960215" /><radialGradient
       inkscape:collect="always"
       xlink:href="#linearGradient3"
       id="radialGradient31"
       gradientUnits="userSpaceOnUse"
       gradientTransform="matrix(1,0,0,1.5724495,0,-16.201569)"
       cx="14.505264"
       cy="28.302181"
       fx="14.505264"
       fy="28.302181"
       r="0.9960215" /><radialGradient
       inkscape:collect="always"
       xlink:href="#linearGradient3"
       id="radialGradient33"
       gradientUnits="userSpaceOnUse"
       gradientTransform="matrix(1,0,0,1.5724495,0,-16.201569)"
       cx="14.505264"
       cy="28.302181"
       fx="14.505264"
       fy="28.302181"
       r="0.9960215" /><radialGradient
       inkscape:collect="always"
       xlink:href="#linearGradient3"
       id="radialGradient35"
       gradientUnits="userSpaceOnUse"
       gradientTransform="matrix(1,0,0,1.5724495,0,-16.201569)"
       cx="14.505264"
       cy="28.302181"
       fx="14.505264"
       fy="28.302181"
       r="0.9960215" /><radialGradient
       inkscape:collect="always"
       xlink:href="#linearGradient3"
       id="radialGradient37"
       gradientUnits="userSpaceOnUse"
       gradientTransform="matrix(1,0,0,1.5724495,0,-16.201569)"
       cx="14.505264"
       cy="28.302181"
       fx="14.505264"
       fy="28.302181"
       r="0.9960215" /><radialGradient
       inkscape:collect="always"
       xlink:href="#linearGradient3"
       id="radialGradient39"
       gradientUnits="userSpaceOnUse"
       gradientTransform="matrix(1,0,0,1.5724495,0,-16.201569)"
       cx="14.505264"
       cy="28.302181"
       fx="14.505264"
       fy="28.302181"
       r="0.9960215" /><radialGradient
       inkscape:collect="always"
       xlink:href="#linearGradient3"
       id="radialGradient42"
       gradientUnits="userSpaceOnUse"
       gradientTransform="matrix(1,0,0,1.5724495,0,-16.201569)"
       cx="14.505264"
       cy="28.302181"
       fx="14.505264"
       fy="28.302181"
       r="0.9960215" /><clipPath
       clipPathUnits="userSpaceOnUse"
       id="clipPath74"><path
         style="fill:none;fill-opacity:1;stroke:#2da53d;stroke-width:0.15;stroke-linecap:round;stroke-linejoin:round;stroke-dasharray:none;stroke-opacity:1"
         d="m 14.559572,30.716845 c 0.571312,-0.06337 0.715664,0.222315 1.625304,0.281813 0.90964,0.0595 1.720722,0.411063 3.972353,-0.120777 2.251631,-0.531839 2.135545,-0.220824 3.498538,0.296022 1.362992,0.516846 2.175232,-0.307293 3.272645,-0.32444 1.097413,-0.01715 2.282131,0.614185 3.355289,0.480739 1.073158,-0.13345 2.334942,-0.90617 3.068795,-1.034886 0.733853,-0.128716 0.582968,0.276759 1.239639,-0.49258 0.656671,-0.769339 1.035787,-4.620303 1.035787,-4.620303 l -8.677472,-5.195769 -13.239342,0.641775 -4.1596774,9.35191 c 0,0 2.7856074,1.177189 3.7299354,0.994632 0.944328,-0.182557 0.706894,-0.194771 1.278206,-0.258136 z"
         id="path74"
         sodipodi:nodetypes="zzzzzzzzcccczz" /></clipPath></defs><g
     inkscape:groupmode="layer"
     id="layer6"
     inkscape:label="Plate"><path
       style="fill:#fffdfa;fill-opacity:1;stroke:#ffead3;stroke-width:0.9;stroke-linecap:round;stroke-linejoin:round;stroke-dasharray:none;stroke-opacity:1"
       d="m 10.725696,36.444857 c 0.01484,1.259548 0.412122,2.72035 1.051868,4.598315 8.21736,0.89447 16.032954,0.798594 24.179016,-0.174735 0.667547,-1.46811 1.092837,-3.393894 1.08141,-4.607776 0,0 -13.315875,-1.205676 -13.19121,-1.279357 0.124666,-0.07368 -13.121084,1.463557 -13.121084,1.463557 z"
       id="path75"
       sodipodi:nodetypes="ccccscc" /><path
       style="fill:#fffdfa;fill-opacity:1;stroke:#ffead3;stroke-width:1;stroke-linecap:square;stroke-dasharray:none;stroke-opacity:1"
       d="m 22.820347,21.040537 c -10.023119,0.165218 -13.1823894,2.492716 -15.2914399,5.100525 -2.1090505,2.607809 -0.9162537,6.163043 2.035037,9.406402 2.9512909,3.243359 24.5111989,2.450677 27.1720439,0.905527 2.660845,-1.54515 5.077106,-7.358897 3.869437,-11.106576 -1.207669,-3.74768 -7.761959,-4.471096 -17.785078,-4.305878 z"
       id="path40"
       sodipodi:nodetypes="zzzzzz"
       inkscape:label="path40" /><path
       style="fill:#d3d8c0;fill-opacity:1;stroke:none;stroke-width:0.5;stroke-linecap:round;stroke-linejoin:round;stroke-opacity:0.972549"
       d="m 11.785287,28.796044 c 1.390441,-0.09227 1.813608,-0.226273 3.998418,-0.702246 2.184809,-0.475973 4.032182,-0.107373 5.173579,-0.1078 1.141397,-4.27e-4 4.733351,0.153541 6.391737,-0.505145 1.658386,-0.658685 5.29884,0.402455 6.535048,0.415804 1.236208,0.01335 2.536631,0.301843 2.536631,0.301843 l 0.04299,1.657055 -1.103506,2.038977 -1.877394,1.342892 -5.847149,0.668366 c -3.678171,0.713804 -7.230007,-0.227295 -10.7556,-0.249482 -2.784156,-0.07928 -3.396994,-0.735301 -3.933927,-1.934257 -0.789172,-0.586335 -1.358067,-1.385706 -1.160827,-2.926026 z"
       id="path2"
       sodipodi:nodetypes="czzzzccccccccc" /><path
       style="fill:none;stroke:#ffead3;stroke-width:0.5;stroke-linecap:round;stroke-linejoin:round;stroke-opacity:0.972549"
       d="m 11.684968,28.512682 c -0.388595,1.949204 0.786709,3.602448 2.880581,4.638521 2.093872,1.036073 16.308889,1.014577 18.73094,0.264882 2.42205,-0.749695 3.681329,-3.315518 3.195867,-5.291487"
       id="path1"
       sodipodi:nodetypes="czzc" /></g><g
     inkscape:groupmode="layer"
     id="layer2"
     inkscape:label="Layer 2"
     clip-path="url(#clipPath74)"><g
       id="g4"
       transform="matrix(1.8052673,0,0,1.586498,-12.024337,-14.580241)"><path
         style="fill:url(#radialGradient4);stroke:none;stroke-width:0.5;stroke-linecap:round;stroke-linejoin:round;stroke-opacity:0.972549"
         d="m 15.132257,25.952121 c 0.0053,0.06297 -1.043042,0.537023 -1.271898,1.213531 -0.228857,0.676508 -0.222282,1.848134 -0.0072,2.702723 0.628612,-0.290101 1.065393,-0.412655 1.54061,-1.367532 0.475217,-0.954878 0.546973,-1.799909 -0.261545,-2.548722 z"
         id="path3"
         sodipodi:nodetypes="czczc"
         clip-path="url(#clipPath23)" /><path
         style="fill:none;fill-opacity:1;stroke:#ddce9a;stroke-width:0.15;stroke-linecap:round;stroke-linejoin:round;stroke-dasharray:none;stroke-opacity:1"
         d="m 15.259443,26.589015 c -0.395548,-0.06876 -0.607629,0.01539 -0.800589,0.21311 -0.19296,0.197717 -0.553527,0.710218 -0.577111,1.33235 -0.02358,0.622132 0.03979,0.972335 0.462627,1.280587"
         id="path4"
         sodipodi:nodetypes="czzc"
         clip-path="url(#clipPath22)" /><g
         inkscape:groupmode="layer"
         id="layer4"
         inkscape:label="Layer 3"
         transform="matrix(0.55393459,0,0,0.63031911,6.6606962,9.1902045)"><path
           style="fill:none;fill-opacity:1;stroke:#dee2b9;stroke-width:0.15;stroke-linecap:round;stroke-linejoin:round;stroke-dasharray:none;stroke-opacity:1"
           d="m 12.281686,29.720065 c 0.651714,0.0053 1.093657,0.130793 1.636324,-0.149196 0.542666,-0.279989 1.248501,-0.464558 1.617039,-0.07341 0.368538,0.391145 1.967751,0.202269 1.988933,-0.222608"
           id="path22"
           sodipodi:nodetypes="czzc" /></g></g><g
       id="g9"
       transform="matrix(1.7596861,0,0,1.1316628,0.3496821,-0.901304)"><path
         style="fill:url(#radialGradient9);stroke:none;stroke-width:0.5;stroke-linecap:round;stroke-linejoin:round;stroke-opacity:0.972549"
         d="m 15.132257,25.952121 c 0.0053,0.06297 -1.043042,0.537023 -1.271898,1.213531 -0.228857,0.676508 -0.222282,1.848134 -0.0072,2.702723 0.628612,-0.290101 1.065393,-0.412655 1.54061,-1.367532 0.475217,-0.954878 0.546973,-1.799909 -0.261545,-2.548722 z"
         id="path8"
         sodipodi:nodetypes="czczc" /><path
         style="fill:none;fill-opacity:1;stroke:#ddce9a;stroke-width:0.15;stroke-linecap:round;stroke-linejoin:round;stroke-dasharray:none;stroke-opacity:1"
         d="m 15.259443,26.589015 c -0.395548,-0.06876 -0.607629,0.01539 -0.800589,0.21311 -0.19296,0.197717 -0.553527,0.710218 -0.577111,1.33235 -0.02358,0.622132 0.03979,0.972335 0.462627,1.280587"
         id="path9"
         sodipodi:nodetypes="czzc" /></g><g
       id="g19"
       transform="matrix(0.92820995,-1.6077068,-1.0975273,-0.63365771,46.174229,70.70126)"><path
         style="fill:url(#radialGradient19);stroke:none;stroke-width:0.5;stroke-linecap:round;stroke-linejoin:round;stroke-opacity:0.972549"
         d="m 15.132257,25.952121 c 0.0053,0.06297 -1.043042,0.537023 -1.271898,1.213531 -0.228857,0.676508 -0.222282,1.848134 -0.0072,2.702723 0.628612,-0.290101 1.065393,-0.412655 1.54061,-1.367532 0.475217,-0.954878 0.546973,-1.799909 -0.261545,-2.548722 z"
         id="path18"
         sodipodi:nodetypes="czczc" /><path
         style="fill:none;fill-opacity:1;stroke:#ddce9a;stroke-width:0.15;stroke-linecap:round;stroke-linejoin:round;stroke-dasharray:none;stroke-opacity:1"
         d="m 15.259443,26.589015 c -0.395548,-0.06876 -0.607629,0.01539 -0.800589,0.21311 -0.19296,0.197717 -0.553527,0.710218 -0.577111,1.33235 -0.02358,0.622132 0.03979,0.972335 0.462627,1.280587"
         id="path19"
         sodipodi:nodetypes="czzc" /></g><g
       id="g11"
       transform="matrix(-1.8564199,0,0,1.2673154,59.605193,-6.2655264)"><path
         style="fill:url(#radialGradient11);stroke:none;stroke-width:0.5;stroke-linecap:round;stroke-linejoin:round;stroke-opacity:0.972549"
         d="m 15.132257,25.952121 c 0.0053,0.06297 -1.043042,0.537023 -1.271898,1.213531 -0.228857,0.676508 -0.222282,1.848134 -0.0072,2.702723 0.628612,-0.290101 1.065393,-0.412655 1.54061,-1.367532 0.475217,-0.954878 0.546973,-1.799909 -0.261545,-2.548722 z"
         id="path10"
         sodipodi:nodetypes="czczc" /><path
         style="fill:none;fill-opacity:1;stroke:#ddce9a;stroke-width:0.15;stroke-linecap:round;stroke-linejoin:round;stroke-dasharray:none;stroke-opacity:1"
         d="m 15.259443,26.589015 c -0.395548,-0.06876 -0.607629,0.01539 -0.800589,0.21311 -0.19296,0.197717 -0.553527,0.710218 -0.577111,1.33235 -0.02358,0.622132 0.03979,0.972335 0.462627,1.280587"
         id="path11"
         sodipodi:nodetypes="czzc" /></g><g
       id="g13"
       transform="matrix(-1.382915,0.89480581,1.0197813,0.93715898,11.581905,-7.8891385)"><path
         style="fill:url(#radialGradient13);stroke:none;stroke-width:0.5;stroke-linecap:round;stroke-linejoin:round;stroke-opacity:0.972549"
         d="m 15.132257,25.952121 c 0.0053,0.06297 -1.043042,0.537023 -1.271898,1.213531 -0.228857,0.676508 -0.222282,1.848134 -0.0072,2.702723 0.628612,-0.290101 1.065393,-0.412655 1.54061,-1.367532 0.475217,-0.954878 0.546973,-1.799909 -0.261545,-2.548722 z"
         id="path12"
         sodipodi:nodetypes="czczc" /><path
         style="fill:none;fill-opacity:1;stroke:#ddce9a;stroke-width:0.15;stroke-linecap:round;stroke-linejoin:round;stroke-dasharray:none;stroke-opacity:1"
         d="m 15.259443,26.589015 c -0.395548,-0.06876 -0.607629,0.01539 -0.800589,0.21311 -0.19296,0.197717 -0.553527,0.710218 -0.577111,1.33235 -0.02358,0.622132 0.03979,0.972335 0.462627,1.280587"
         id="path13"
         sodipodi:nodetypes="czzc" /></g><g
       id="g15"
       transform="matrix(1.444646,0.82540515,-0.73299131,1.2563939,22.583215,-18.089063)"><path
         style="fill:url(#radialGradient15);stroke:none;stroke-width:0.5;stroke-linecap:round;stroke-linejoin:round;stroke-opacity:0.972549"
         d="m 15.132257,25.952121 c 0.0053,0.06297 -1.043042,0.537023 -1.271898,1.213531 -0.228857,0.676508 -0.222282,1.848134 -0.0072,2.702723 0.628612,-0.290101 1.065393,-0.412655 1.54061,-1.367532 0.475217,-0.954878 0.546973,-1.799909 -0.261545,-2.548722 z"
         id="path14"
         sodipodi:nodetypes="czczc" /><path
         style="fill:none;fill-opacity:1;stroke:#ddce9a;stroke-width:0.15;stroke-linecap:round;stroke-linejoin:round;stroke-dasharray:none;stroke-opacity:1"
         d="m 15.259443,26.589015 c -0.395548,-0.06876 -0.607629,0.01539 -0.800589,0.21311 -0.19296,0.197717 -0.553527,0.710218 -0.577111,1.33235 -0.02358,0.622132 0.03979,0.972335 0.462627,1.280587"
         id="path15"
         sodipodi:nodetypes="czzc" /></g><g
       id="g17"
       transform="matrix(1.3522265,0.43781456,-0.43252709,1.0571153,8.858562,-4.992799)"><path
         style="fill:url(#radialGradient17);stroke:none;stroke-width:0.5;stroke-linecap:round;stroke-linejoin:round;stroke-opacity:0.972549"
         d="m 15.132257,25.952121 c 0.0053,0.06297 -1.043042,0.537023 -1.271898,1.213531 -0.228857,0.676508 -0.222282,1.848134 -0.0072,2.702723 0.628612,-0.290101 1.065393,-0.412655 1.54061,-1.367532 0.475217,-0.954878 0.546973,-1.799909 -0.261545,-2.548722 z"
         id="path16"
         sodipodi:nodetypes="czczc" /><path
         style="fill:none;fill-opacity:1;stroke:#ddce9a;stroke-width:0.15;stroke-linecap:round;stroke-linejoin:round;stroke-dasharray:none;stroke-opacity:1"
         d="m 15.259443,26.589015 c -0.395548,-0.06876 -0.607629,0.01539 -0.800589,0.21311 -0.19296,0.197717 -0.553527,0.710218 -0.577111,1.33235 -0.02358,0.622132 0.03979,0.972335 0.462627,1.280587"
         id="path17"
         sodipodi:nodetypes="czzc" /></g><g
       id="g27"
       transform="matrix(1.7596861,0,0,1.1316628,-5.3378179,-2.854429)"><path
         style="fill:url(#radialGradient27);stroke:none;stroke-width:0.5;stroke-linecap:round;stroke-linejoin:round;stroke-opacity:0.972549"
         d="m 15.132257,25.952121 c 0.0053,0.06297 -1.043042,0.537023 -1.271898,1.213531 -0.228857,0.676508 -0.222282,1.848134 -0.0072,2.702723 0.628612,-0.290101 1.065393,-0.412655 1.54061,-1.367532 0.475217,-0.954878 0.546973,-1.799909 -0.261545,-2.548722 z"
         id="path26"
         sodipodi:nodetypes="czczc" /><path
         style="fill:none;fill-opacity:1;stroke:#ddce9a;stroke-width:0.15;stroke-linecap:round;stroke-linejoin:round;stroke-dasharray:none;stroke-opacity:1"
         d="m 15.259443,26.589015 c -0.395548,-0.06876 -0.607629,0.01539 -0.800589,0.21311 -0.19296,0.197717 -0.553527,0.710218 -0.577111,1.33235 -0.02358,0.622132 0.03979,0.972335 0.462627,1.280587"
         id="path27"
         sodipodi:nodetypes="czzc" /></g><g
       id="g29"
       transform="matrix(-1.8564199,0,0,1.2673154,53.652068,-8.0624014)"><path
         style="fill:url(#radialGradient29);stroke:none;stroke-width:0.5;stroke-linecap:round;stroke-linejoin:round;stroke-opacity:0.972549"
         d="m 15.132257,25.952121 c 0.0053,0.06297 -1.043042,0.537023 -1.271898,1.213531 -0.228857,0.676508 -0.222282,1.848134 -0.0072,2.702723 0.628612,-0.290101 1.065393,-0.412655 1.54061,-1.367532 0.475217,-0.954878 0.546973,-1.799909 -0.261545,-2.548722 z"
         id="path28"
         sodipodi:nodetypes="czczc" /><path
         style="fill:none;fill-opacity:1;stroke:#ddce9a;stroke-width:0.15;stroke-linecap:round;stroke-linejoin:round;stroke-dasharray:none;stroke-opacity:1"
         d="m 15.259443,26.589015 c -0.395548,-0.06876 -0.607629,0.01539 -0.800589,0.21311 -0.19296,0.197717 -0.553527,0.710218 -0.577111,1.33235 -0.02358,0.622132 0.03979,0.972335 0.462627,1.280587"
         id="path29"
         sodipodi:nodetypes="czzc" /></g><g
       id="g31"
       transform="matrix(0.92820995,-1.6077068,-1.0975273,-0.63365771,47.189854,68.07626)"><path
         style="fill:url(#radialGradient31);stroke:none;stroke-width:0.5;stroke-linecap:round;stroke-linejoin:round;stroke-opacity:0.972549"
         d="m 15.132257,25.952121 c 0.0053,0.06297 -1.043042,0.537023 -1.271898,1.213531 -0.228857,0.676508 -0.222282,1.848134 -0.0072,2.702723 0.628612,-0.290101 1.065393,-0.412655 1.54061,-1.367532 0.475217,-0.954878 0.546973,-1.799909 -0.261545,-2.548722 z"
         id="path30"
         sodipodi:nodetypes="czczc" /><path
         style="fill:none;fill-opacity:1;stroke:#ddce9a;stroke-width:0.15;stroke-linecap:round;stroke-linejoin:round;stroke-dasharray:none;stroke-opacity:1"
         d="m 15.259443,26.589015 c -0.395548,-0.06876 -0.607629,0.01539 -0.800589,0.21311 -0.19296,0.197717 -0.553527,0.710218 -0.577111,1.33235 -0.02358,0.622132 0.03979,0.972335 0.462627,1.280587"
         id="path31"
         sodipodi:nodetypes="czzc" /></g><g
       id="g33"
       transform="matrix(0.71933819,1.4795567,-0.85055462,0.58314892,30.784842,-9.9221869)"><path
         style="fill:url(#radialGradient33);stroke:none;stroke-width:0.5;stroke-linecap:round;stroke-linejoin:round;stroke-opacity:0.972549"
         d="m 15.132257,25.952121 c 0.0053,0.06297 -1.043042,0.537023 -1.271898,1.213531 -0.228857,0.676508 -0.222282,1.848134 -0.0072,2.702723 0.628612,-0.290101 1.065393,-0.412655 1.54061,-1.367532 0.475217,-0.954878 0.546973,-1.799909 -0.261545,-2.548722 z"
         id="path32"
         sodipodi:nodetypes="czczc" /><path
         style="fill:none;fill-opacity:1;stroke:#ddce9a;stroke-width:0.15;stroke-linecap:round;stroke-linejoin:round;stroke-dasharray:none;stroke-opacity:1"
         d="m 15.259443,26.589015 c -0.395548,-0.06876 -0.607629,0.01539 -0.800589,0.21311 -0.19296,0.197717 -0.553527,0.710218 -0.577111,1.33235 -0.02358,0.622132 0.03979,0.972335 0.462627,1.280587"
         id="path33"
         sodipodi:nodetypes="czzc" /></g><g
       id="g35"
       transform="matrix(1.444646,0.82540515,-0.73299131,1.2563939,22.16134,-20.964063)"><path
         style="fill:url(#radialGradient35);stroke:none;stroke-width:0.5;stroke-linecap:round;stroke-linejoin:round;stroke-opacity:0.972549"
         d="m 15.132257,25.952121 c 0.0053,0.06297 -1.043042,0.537023 -1.271898,1.213531 -0.228857,0.676508 -0.222282,1.848134 -0.0072,2.702723 0.628612,-0.290101 1.065393,-0.412655 1.54061,-1.367532 0.475217,-0.954878 0.546973,-1.799909 -0.261545,-2.548722 z"
         id="path34"
         sodipodi:nodetypes="czczc" /><path
         style="fill:none;fill-opacity:1;stroke:#ddce9a;stroke-width:0.15;stroke-linecap:round;stroke-linejoin:round;stroke-dasharray:none;stroke-opacity:1"
         d="m 15.259443,26.589015 c -0.395548,-0.06876 -0.607629,0.01539 -0.800589,0.21311 -0.19296,0.197717 -0.553527,0.710218 -0.577111,1.33235 -0.02358,0.622132 0.03979,0.972335 0.462627,1.280587"
         id="path35"
         sodipodi:nodetypes="czzc" /></g><g
       id="g37"
       transform="matrix(1.7596861,0,0,1.1316628,-5.3065679,-5.901304)"><path
         style="fill:url(#radialGradient37);stroke:none;stroke-width:0.5;stroke-linecap:round;stroke-linejoin:round;stroke-opacity:0.972549"
         d="m 15.132257,25.952121 c 0.0053,0.06297 -1.043042,0.537023 -1.271898,1.213531 -0.228857,0.676508 -0.222282,1.848134 -0.0072,2.702723 0.628612,-0.290101 1.065393,-0.412655 1.54061,-1.367532 0.475217,-0.954878 0.546973,-1.799909 -0.261545,-2.548722 z"
         id="path36"
         sodipodi:nodetypes="czczc" /><path
         style="fill:none;fill-opacity:1;stroke:#ddce9a;stroke-width:0.15;stroke-linecap:round;stroke-linejoin:round;stroke-dasharray:none;stroke-opacity:1"
         d="m 15.259443,26.589015 c -0.395548,-0.06876 -0.607629,0.01539 -0.800589,0.21311 -0.19296,0.197717 -0.553527,0.710218 -0.577111,1.33235 -0.02358,0.622132 0.03979,0.972335 0.462627,1.280587"
         id="path37"
         sodipodi:nodetypes="czzc" /></g><g
       id="g39"
       transform="matrix(0.92820995,-1.6077068,-1.0975273,-0.63365771,34.767979,66.88876)"><path
         style="fill:url(#radialGradient39);stroke:none;stroke-width:0.5;stroke-linecap:round;stroke-linejoin:round;stroke-opacity:0.972549"
         d="m 15.132257,25.952121 c 0.0053,0.06297 -1.043042,0.537023 -1.271898,1.213531 -0.228857,0.676508 -0.222282,1.848134 -0.0072,2.702723 0.628612,-0.290101 1.065393,-0.412655 1.54061,-1.367532 0.475217,-0.954878 0.546973,-1.799909 -0.261545,-2.548722 z"
         id="path38"
         sodipodi:nodetypes="czczc" /><path
         style="fill:none;fill-opacity:1;stroke:#ddce9a;stroke-width:0.15;stroke-linecap:round;stroke-linejoin:round;stroke-dasharray:none;stroke-opacity:1"
         d="m 15.259443,26.589015 c -0.395548,-0.06876 -0.607629,0.01539 -0.800589,0.21311 -0.19296,0.197717 -0.553527,0.710218 -0.577111,1.33235 -0.02358,0.622132 0.03979,0.972335 0.462627,1.280587"
         id="path39"
         sodipodi:nodetypes="czzc" /></g><g
       id="g42"
       transform="matrix(-1.382915,0.89480581,1.0197813,0.93715898,19.62878,-14.201638)"><path
         style="fill:url(#radialGradient42);stroke:none;stroke-width:0.5;stroke-linecap:round;stroke-linejoin:round;stroke-opacity:0.972549"
         d="m 15.132257,25.952121 c 0.0053,0.06297 -1.043042,0.537023 -1.271898,1.213531 -0.228857,0.676508 -0.222282,1.848134 -0.0072,2.702723 0.628612,-0.290101 1.065393,-0.412655 1.54061,-1.367532 0.475217,-0.954878 0.546973,-1.799909 -0.261545,-2.548722 z"
         id="path41"
         sodipodi:nodetypes="czczc" /><path
         style="fill:none;fill-opacity:1;stroke:#ddce9a;stroke-width:0.15;stroke-linecap:round;stroke-linejoin:round;stroke-dasharray:none;stroke-opacity:1"
         d="m 15.259443,26.589015 c -0.395548,-0.06876 -0.607629,0.01539 -0.800589,0.21311 -0.19296,0.197717 -0.553527,0.710218 -0.577111,1.33235 -0.02358,0.622132 0.03979,0.972335 0.462627,1.280587"
         id="path42"
         sodipodi:nodetypes="czzc" /></g><path
       style="fill:#eaecdf;fill-opacity:1;stroke:#dee2b9;stroke-width:0.15;stroke-linecap:round;stroke-linejoin:round;stroke-dasharray:none;stroke-opacity:1"
       d="m 29.850671,24.468607 c 0.03077,0.55295 -0.280818,1.010167 -0.820917,1.383012 -0.540099,0.372845 -0.296739,1.184206 -0.247927,1.887433 0.412483,0.185974 0.376912,0.447647 1.548171,0.395485 1.171259,-0.05216 1.831672,-0.538858 2.126669,-1.105936 -0.632279,-1.377755 -1.518403,-2.192352 -2.605996,-2.559994 z"
       id="path43"
       sodipodi:nodetypes="czczcc" /><path
       style="fill:#fffdfa;fill-opacity:1;stroke:#2da53d;stroke-width:0.15;stroke-linecap:round;stroke-linejoin:round;stroke-dasharray:none;stroke-opacity:1"
       d="m 29.112397,26.107382 c 0.06142,0.04507 0.07468,0.08448 0.303023,0.149195"
       id="path44"
       sodipodi:nodetypes="cc" /><path
       style="fill:#fffdfa;fill-opacity:1;stroke:#2da53d;stroke-width:0.178204;stroke-linecap:round;stroke-linejoin:round;stroke-dasharray:none;stroke-opacity:1"
       d="m 30.49517,25.121484 c -0.131822,0.03664 -0.221306,0.11562 -0.259398,0.245991"
       id="path45"
       sodipodi:nodetypes="cc" /><path
       style="fill:#fffdfa;fill-opacity:1;stroke:#2da53d;stroke-width:0.178204;stroke-linecap:round;stroke-linejoin:round;stroke-dasharray:none;stroke-opacity:1"
       d="m 31.073295,25.840234 c 0.0029,0.0373 -0.07492,0.114987 -0.259398,0.245991"
       id="path46"
       sodipodi:nodetypes="cc" /><path
       style="fill:#fffdfa;fill-opacity:1;stroke:#2da53d;stroke-width:0.178204;stroke-linecap:round;stroke-linejoin:round;stroke-dasharray:none;stroke-opacity:1"
       d="M 30.02642,27.152734 C 29.841424,27.009608 29.733426,26.969145 29.673272,26.992475"
       id="path47"
       sodipodi:nodetypes="cc" /><path
       style="fill:#fffdfa;fill-opacity:1;stroke:#2da53d;stroke-width:0.15;stroke-linecap:round;stroke-linejoin:round;stroke-dasharray:none;stroke-opacity:1"
       d="m 31.33896,26.415976 c 0.06142,0.04507 0.07468,0.08448 0.303022,0.149195"
       id="path48"
       sodipodi:nodetypes="cc" /><path
       style="fill:#fffdfa;fill-opacity:1;stroke:#2da53d;stroke-width:0.104628;stroke-linecap:round;stroke-linejoin:round;stroke-dasharray:none;stroke-opacity:1"
       d="m 30.738149,26.995693 c 0.04132,-0.03259 0.05024,-0.06109 0.203863,-0.107896"
       id="path49"
       sodipodi:nodetypes="cc" /><path
       style="fill:#fffdfa;fill-opacity:1;stroke:#2da53d;stroke-width:0.104628;stroke-linecap:round;stroke-linejoin:round;stroke-dasharray:none;stroke-opacity:1"
       d="m 30.187368,25.878505 c 0.04132,-0.03259 0.05024,-0.06109 0.203863,-0.107896"
       id="path50"
       sodipodi:nodetypes="cc" /></g><g
     inkscape:groupmode="layer"
     id="layer5"
     inkscape:label="WaterclipL"><path
       style="fill:none;fill-opacity:1;stroke:#dee2b9;stroke-width:0.15;stroke-linecap:round;stroke-linejoin:round;stroke-dasharray:none;stroke-opacity:1"
       d="m 13.281366,30.974981 c 0.944328,-0.182557 0.706894,-0.194771 1.278206,-0.258136 0.571312,-0.06337 0.715664,0.222315 1.625304,0.281813 0.90964,0.0595 1.720722,0.411063 3.972353,-0.120777 2.251631,-0.531839 2.135545,-0.220824 3.498538,0.296022 1.362992,0.516846 2.175232,-0.307293 3.272645,-0.32444 1.097413,-0.01715 2.282131,0.614185 3.355289,0.480739 1.073158,-0.13345 2.334942,-0.90617 3.068795,-1.034886 0.733853,-0.128716 0.852499,-0.06699 1.052139,0.01523"
       id="path52"
       sodipodi:nodetypes="czzzzzzzc" /></g><g
     inkscape:label="Layer 1"
     inkscape:groupmode="layer"
     id="layer1" /></svg>
