<?xml version="1.0" encoding="UTF-8" standalone="no"?>
<!-- Created with Inkscape (http://www.inkscape.org/) -->

<svg
   width="120"
   height="90"
   viewBox="0 0 31.749999 23.8125"
   version="1.1"
   id="svg1"
   sodipodi:docname="SmallRoomFrame.svg"
   inkscape:version="1.3.2 (091e20e, 2023-11-25, custom)"
   xmlns:inkscape="http://www.inkscape.org/namespaces/inkscape"
   xmlns:sodipodi="http://sodipodi.sourceforge.net/DTD/sodipodi-0.dtd"
   xmlns="http://www.w3.org/2000/svg"
   xmlns:svg="http://www.w3.org/2000/svg">
  <sodipodi:namedview
     id="namedview1"
     pagecolor="#ffffff"
     bordercolor="#999999"
     borderopacity="1"
     inkscape:showpageshadow="2"
     inkscape:pageopacity="0"
     inkscape:pagecheckerboard="0"
     inkscape:deskcolor="#d1d1d1"
     inkscape:document-units="mm"
     showguides="true"
     inkscape:zoom="11.903123"
     inkscape:cx="86.65793"
     inkscape:cy="43.307962"
     inkscape:window-width="3440"
     inkscape:window-height="1377"
     inkscape:window-x="-8"
     inkscape:window-y="-8"
     inkscape:window-maximized="1"
     inkscape:current-layer="layer1" />
  <defs
     id="defs1" />
  <g
     inkscape:label="Layer 1"
     inkscape:groupmode="layer"
     id="layer1"
     style="display:none">
    <path
       style="fill:#94919d;fill-opacity:1;stroke:#1a1a1a;stroke-width:0.264583;stroke-linecap:square;stroke-dasharray:none;stroke-opacity:1"
       d="M 9.2604166,3.96875 H 22.489584 c 1.101329,0.014317 1.295374,0.3012368 1.322916,0.5291667 V 19.314583 c -0.0102,0.356464 -0.209742,0.49118 -1.322916,0.529167 H 9.2604166 C 8.1231892,19.796357 7.9375537,19.734724 7.9375,19.314583 V 4.4979167 C 7.9354787,4.268618 8.2275371,3.9752823 9.2604166,3.96875 Z"
       id="path1"
       sodipodi:nodetypes="ccccccccc" />
  </g>
  <g
     inkscape:groupmode="layer"
     id="layer2"
     inkscape:label="Decor"
     style="display:none">
    <path
       style="fill:none;fill-opacity:1;stroke:none;stroke-width:0.264583;stroke-linecap:square;stroke-dasharray:none;stroke-opacity:1"
       d="m 12.578174,19.896381 c -0.02817,-0.0678 -0.02744,-0.142478 -0.04703,-0.212244 -0.03614,-0.128696 -0.08316,-0.256116 -0.109729,-0.387429 -0.02684,-0.132661 -0.02344,-0.282783 -0.07054,-0.411013 -0.0276,-0.07513 -0.06123,-0.153752 -0.07054,-0.235826 -0.01105,-0.09739 -0.0088,-0.196195 -0.02351,-0.293099 -0.01984,-0.130752 -0.07775,-0.246013 -0.08622,-0.380691 -0.01022,-0.162609 0,-0.328899 0,-0.491867 0,-0.218781 -0.0079,-0.442869 0.01568,-0.660315 0.01305,-0.120648 0.06908,-0.228905 0.09405,-0.347002 0.0032,-0.01495 0.01179,-0.09503 0.01568,-0.111175 0.0093,-0.03879 0.03545,-0.07097 0.03919,-0.111176 0.0096,-0.102638 0.03929,-0.203424 0.04703,-0.306574 0.01709,-0.227694 0.0042,-0.466417 -0.0078,-0.694004 -0.0079,-0.150252 -0.03478,-0.285513 -0.109729,-0.414381 -0.02597,-0.04465 -0.06499,-0.08394 -0.08622,-0.131389 -0.0312,-0.06973 0.02324,-0.226187 -0.0078,-0.279623 -0.03178,-0.05465 -0.03904,-0.08287 -0.04703,-0.154972 -0.0025,-0.02232 0.0098,-0.04717 0,-0.06738 -0.03511,-0.07245 -0.107691,-0.106296 -0.141081,-0.175185 -0.03716,-0.07667 -0.0097,-0.251125 0.03135,-0.316682 0.0077,-0.01232 0.02437,-0.01757 0.03135,-0.03032 0.03728,-0.0681 0.05633,-0.275611 0.09405,-0.370584 0.08704,-0.219124 0.231954,-0.464878 0.415404,-0.616518 0.14677,-0.121321 0.346438,-0.131466 0.525132,-0.168448 0.252039,-0.05216 0.494941,-0.121373 0.752429,-0.141496 0.150905,-0.01179 0.303406,-0.003 0.454592,-0.01347 0.493426,-0.03421 0.977872,-0.131389 1.473507,-0.131389 0.607624,0 1.220863,-0.02662 1.826207,0.02695 0.308546,0.0273 0.706718,0.04493 0.956212,0.259409 0.287549,0.247197 0.419006,0.960739 0.509457,1.313891 0.04609,0.179956 0.110554,0.357105 0.133243,0.542401 0.02347,0.191676 1.18e-4,0.387007 0.0078,0.57946 0.0072,0.179256 0.01151,0.0357 0.03919,0.279623 0.01326,0.116799 0.01546,0.239413 0.02351,0.357108 0.0057,0.08263 0.02454,0.164 0.03135,0.245934 0.01697,0.204271 -0.0088,0.412897 0.01568,0.616518 0.03301,0.274292 0.06327,0.584703 0.03135,0.859083 -0.01496,0.128575 -0.05821,0.256208 -0.07838,0.38406 -0.02144,0.135926 -0.02351,0.280586 -0.02351,0.41775 0,0.380912 -0.01568,0.763055 -0.01568,1.145443 0,0.04728 0.02005,0.343633 -0.01568,0.343633"
       id="path2" />
    <path
       style="fill:none;fill-opacity:1;stroke:#333333;stroke-width:0.264583;stroke-linecap:square;stroke-dasharray:none;stroke-opacity:1"
       d="m 13.228711,19.633603 c -0.01829,-0.04043 -0.04137,-0.07901 -0.05487,-0.121283 -0.02929,-0.09172 -0.01685,-0.808553 -0.0078,-0.96352 0.0054,-0.09215 0.02172,-0.197244 0.0078,-0.28973 -0.0081,-0.05372 -0.04164,-0.105274 -0.05486,-0.15834 -0.03189,-0.127936 0.01334,0.03315 -0.0078,-0.09433 -0.0027,-0.01634 -0.01045,-0.03144 -0.01568,-0.04716 -0.0052,-0.02583 -0.0123,-0.05135 -0.01568,-0.07749 -0.02679,-0.207293 0,-0.438134 0,-0.646839 0,-0.184156 -0.01187,-0.372232 0,-0.555877 0.0084,-0.130034 0.03135,-0.253265 0.03135,-0.38406 0,-0.228788 -0.01769,-0.465955 0,-0.694004 0.0065,-0.08399 0.02951,-0.166143 0.03919,-0.249303 0.0068,-0.05855 -0.005,-0.164164 0.04703,-0.208874 0.06382,-0.05487 0.197642,-0.03893 0.274323,-0.04717 0.288904,-0.03105 0.572836,-0.017 0.862158,-0.03032 0.53156,-0.02448 1.068893,-0.01187 1.598911,0.03369 0.127994,0.011 0.255817,0.03216 0.384052,0.04043 0.413517,0.02666 0.831967,-0.01484 1.24621,0 0.285143,0.01021 0.568795,0.02695 0.854321,0.02695 0.01924,0 0.166356,-0.02653 0.180269,0.0034 0.09842,0.211523 0.07349,0.611472 0.07838,0.832131 0.0068,0.30841 0.05522,0.612935 0.03919,0.923093 -0.01795,0.347169 -0.09333,0.686244 -0.125405,1.030899 -0.0137,0.147232 -0.01996,0.346015 0,0.491867 0.0089,0.06515 0.06501,0.133166 0.07838,0.202137 0.0272,0.140283 0.0026,0.280843 0.01568,0.421119 0.01538,0.165246 0.01568,0.331034 0.01568,0.498605"
       id="path6" />
    <path
       style="fill:none;fill-opacity:1;stroke:#333333;stroke-width:0.264583;stroke-linecap:square;stroke-dasharray:none;stroke-opacity:1"
       d="m 14.216274,4.2408641 c 0.02983,0.1599785 0.07221,0.3226128 0.08622,0.4851289 0.01118,0.1297091 0.0078,0.4966322 0.0078,0.6064112 0,0.4199959 0,0.8399918 0,1.2599879 0,0.6606228 -0.02021,1.3241599 0,1.9843123 0.0039,0.1277686 0.02777,0.2528337 0.03135,0.3806915 0.01009,0.3601532 -0.0043,0.7213613 0.0078,1.0814331 0.01415,0.419545 0.09689,0.832818 0.148918,1.246512 0.01157,0.09202 0.04143,0.182501 0.04703,0.276254 0.0086,0.143938 0,0.290342 0,0.434595 0,0.725844 -0.0078,1.452554 -0.0078,2.176343 0,0.17482 0.0069,0.333483 -0.03135,0.501973 -0.0041,0.0179 -0.06097,0.199883 -0.04703,0.208875 0.02012,0.01297 0.04703,-0.009 0.07054,-0.01347"
       id="path7" />
    <path
       style="fill:none;fill-opacity:1;stroke:#333333;stroke-width:0.264583;stroke-linecap:square;stroke-dasharray:none;stroke-opacity:1"
       d="m 17.280854,4.2004366 c -0.0065,0.4196993 0.04467,0.848121 0,1.2667257 -0.02252,0.2110137 -0.104547,0.3971097 -0.117567,0.6097802 -0.01276,0.2083692 0,0.4254381 0,0.6333628 0,0.1858163 -0.01368,0.3774331 0,0.562615 0.02291,0.3102112 0.0804,0.620935 0.117567,0.9298305 0.0076,0.063552 -0.0027,0.1280752 0,0.1920301 0.01233,0.2968378 0.02721,0.5953064 0.01568,0.8927721 -0.01446,0.3728995 -0.01353,0.74525 -0.02351,1.118492 -0.0052,0.193078 -0.02244,0.384693 -0.01568,0.57946 0.01023,0.294639 0.02351,0.58822 0.02351,0.882665 0,0.284115 0,0.56823 0,0.852345 0,0.147997 -0.02063,0.308479 0,0.454808 0.01119,0.07933 0.0068,0.163625 0.02351,0.242564 0.04085,0.193132 0.09489,0.382406 0.133243,0.576091 0.01373,0.06936 0.05393,0.123727 0.0627,0.195399 0.02848,0.232621 0,0.506817 0,0.744539"
       id="path8" />
    <path
       style="fill:none;fill-opacity:1;stroke:#333333;stroke-width:0.263271;stroke-linecap:square;stroke-dasharray:none;stroke-opacity:1"
       d="m 15.846064,15.192003 c 0.02367,0.03864 0.05513,0.07367 0.07103,0.115941 0.02419,0.06431 0.0011,0.137192 0.0079,0.205382 0.0071,0.07216 0.02072,0.143593 0.03157,0.21532 0.01026,0.06783 0.05503,0.33951 0.05524,0.341199 0.04109,0.32193 0.01314,0.673143 -0.02367,0.993783 -0.01078,0.09394 -0.05169,0.182941 -0.07103,0.274947 -0.01658,0.0789 -0.01824,0.160123 -0.03946,0.238509 -0.01671,0.06174 -0.05704,0.128222 -0.06314,0.192131 -0.0099,0.103125 -0.02281,0.635039 0,0.7089 0.03904,0.126404 0.07534,0.231017 0.08682,0.361074 0.01139,0.129039 0.03611,0.494888 0.0079,0.589644 -0.02133,0.0716 -0.03157,0.131857 -0.03157,0.212008"
       id="path9" />
    <path
       style="fill:none;fill-opacity:1;stroke:#333333;stroke-width:0.264583;stroke-linecap:square;stroke-dasharray:none;stroke-opacity:1"
       d="m 16.630316,17.982816 c 0.198754,0.0036 0.397052,-0.01343 0.595673,-0.01685 0.05149,-8.73e-4 0.264311,-0.02115 0.313512,0 0.03038,0.01306 0.04265,0.02746 0.07838,0.03706 0.01457,0.0039 0.06015,0.0098 0.07054,0.02021 0.02331,0.02338 -0.241995,0.366959 -0.274323,0.431226 -0.01123,0.02233 -0.0719,0.387582 -0.180269,0.309943 -0.05059,-0.03624 -0.172875,-0.225811 -0.227296,-0.282991 -0.06104,-0.06413 -0.126509,-0.125116 -0.188107,-0.188662 -0.01152,-0.01188 -0.256294,-0.162055 -0.25081,-0.178554 0.01531,-0.04605 0.0418,-0.08759 0.0627,-0.131389 z"
       id="path11" />
    <path
       style="fill:none;fill-opacity:1;stroke:#333333;stroke-width:0.264583;stroke-linecap:square;stroke-dasharray:none;stroke-opacity:1"
       d="m 16.645992,17.322502 c 0.175044,0 0.350089,0 0.525133,0 0.14108,0 0.282161,0 0.423241,0 0.04496,0 0.08831,0.0062 0.133243,0.01011 0.0014,1.23e-4 0.04703,0.01143 0.04703,0.01011 0,-0.01865 -0.03227,-0.01891 -0.04703,-0.03032 -0.115684,-0.0895 -0.232524,-0.167328 -0.305675,-0.293099 -0.03289,-0.05655 -0.03907,-0.162354 -0.05486,-0.22572 -0.01145,-0.04593 -0.118468,-0.288865 -0.156756,-0.299837 -0.02682,-0.0077 -0.101043,0.130619 -0.117567,0.154972 -0.03145,0.04635 -0.04943,0.102605 -0.07838,0.148234 -0.05872,0.09255 -0.403127,0.30431 -0.39189,0.400905 0.0049,0.042 0.01568,0.0831 0.02351,0.124651 z"
       id="path12" />
  </g>
  <g
     inkscape:label="Layer 1"
     inkscape:groupmode="layer"
     id="layer1-7"
     transform="translate(-0.0570559,0.02545789)">
    <path
       style="fill:none;fill-opacity:1;stroke:#1a1a1a;stroke-width:0.264583;stroke-linecap:square;stroke-dasharray:none;stroke-opacity:1"
       d="M 9.3174809,3.9432919 H 22.546649 c 1.101329,0.014317 1.295374,0.3012368 1.322916,0.5291667 V 19.289125 c -0.0102,0.356464 -0.209742,0.49118 -1.322916,0.529167 H 9.3174809 c -1.137227,-0.04739 -1.322863,-0.109026 -1.322916,-0.529167 V 4.4724586 c -0.002,-0.2292987 0.290037,-0.5226344 1.322916,-0.5291667 z"
       id="path1-3"
       sodipodi:nodetypes="ccccccccc" />
  </g>
</svg>
